<svg width="139" height="33" viewBox="0 0 139 33" fill="none" xmlns="http://www.w3.org/2000/svg">
<path fill-rule="evenodd" clip-rule="evenodd" d="M117.223 19.25C116.835 19.25 116.52 19.5578 116.52 19.9375V21.3125C116.52 21.6922 116.835 22 117.223 22H118.628C119.016 22 119.33 21.6922 119.33 21.3125V19.9375C119.33 19.5578 119.016 19.25 118.628 19.25L117.223 19.25ZM120.501 18.7917C120.113 18.7917 119.798 18.4839 119.798 18.1042V15.8125C119.798 15.4328 120.113 15.125 120.501 15.125H122.843C123.231 15.125 123.545 15.4328 123.545 15.8125V18.1042C123.545 18.4839 123.231 18.7917 122.843 18.7917L120.501 18.7917ZM125.887 18.1042C125.887 18.4839 126.201 18.7917 126.589 18.7917H128.931C129.319 18.7917 129.633 18.4839 129.633 18.1042V12.8333V9.85417C129.633 9.47447 129.319 9.16667 128.931 9.16667H125.887H120.501C120.113 9.16667 119.798 9.47447 119.798 9.85417V12.1458C119.798 12.5255 120.113 12.8333 120.501 12.8333H125.184C125.572 12.8333 125.887 13.1411 125.887 13.5208V18.1042Z" fill="white"/>
<path fill-rule="evenodd" clip-rule="evenodd" d="M138.297 2.75C138.685 2.75 139 2.4422 139 2.0625V0.6875C139 0.307804 138.685 0 138.297 0L136.892 0C136.504 0 136.19 0.307804 136.19 0.6875V2.0625C136.19 2.4422 136.504 2.75 136.892 2.75L138.297 2.75ZM135.019 3.20833C135.407 3.20833 135.722 3.51614 135.722 3.89583V6.1875C135.722 6.5672 135.407 6.875 135.019 6.875L132.677 6.875C132.29 6.875 131.975 6.5672 131.975 6.1875V3.89583C131.975 3.51614 132.29 3.20833 132.677 3.20833L135.019 3.20833ZM129.633 3.89583C129.633 3.51614 129.319 3.20833 128.931 3.20833H126.589C126.201 3.20833 125.887 3.51614 125.887 3.89583V9.16667V12.1458C125.887 12.5255 126.201 12.8333 126.589 12.8333H129.633H135.019C135.407 12.8333 135.722 12.5255 135.722 12.1458V9.85417C135.722 9.47447 135.407 9.16667 135.019 9.16667H130.336C129.948 9.16667 129.633 8.85886 129.633 8.47917V3.89583Z" fill="#80C1F6"/>
<path d="M125.887 9.16669V12.1459C125.887 12.5255 126.201 12.8334 126.589 12.8334H129.633V9.85419C129.633 9.47449 129.319 9.16669 128.931 9.16669H125.887Z" fill="#A83CB2"/>
<path d="M7.89808 29.6795C5.48007 29.6795 3.58182 29.0345 2.20333 27.7444C0.847433 26.4329 0.12429 24.6053 0.0338971 22.2617L0 20.9716L0.0338971 19.6816C0.12429 17.338 0.847433 15.5212 2.20333 14.2311C3.58182 12.9196 5.48007 12.2638 7.89808 12.2638C9.52515 12.2638 10.9036 12.5433 12.0336 13.1023C13.1635 13.6614 13.9996 14.3494 14.542 15.1664C15.1069 15.9835 15.412 16.8005 15.4572 17.6175C15.4798 17.8325 15.412 18.0045 15.2538 18.1335C15.0956 18.2625 14.9035 18.327 14.6775 18.327H13.0505C12.8245 18.327 12.655 18.284 12.542 18.198C12.429 18.112 12.316 17.94 12.203 17.682C11.8189 16.65 11.2765 15.9189 10.576 15.4889C9.87542 15.0374 8.99409 14.8117 7.93198 14.8117C6.53089 14.8117 5.41227 15.2309 4.57614 16.0695C3.7626 16.8865 3.32194 18.1443 3.25414 19.8429L3.22025 21.0039L3.25414 22.1004C3.32194 23.8205 3.7626 25.0891 4.57614 25.9061C5.38967 26.7231 6.50829 27.1316 7.93198 27.1316C8.99409 27.1316 9.87542 26.9166 10.576 26.4866C11.2765 26.0351 11.8189 25.2933 12.203 24.2613C12.316 24.0033 12.429 23.8313 12.542 23.7453C12.655 23.6378 12.8245 23.584 13.0505 23.584H14.6775C14.9035 23.584 15.0956 23.6593 15.2538 23.8098C15.412 23.9388 15.4798 24.1108 15.4572 24.3258C15.412 25.1213 15.1069 25.9383 14.542 26.7769C13.9996 27.5939 13.1635 28.2819 12.0336 28.841C10.9262 29.4 9.54775 29.6795 7.89808 29.6795Z" fill="white"/>
<path d="M26.7029 29.6795C24.2171 29.6795 22.2849 29.013 20.9064 27.6799C19.5505 26.3469 18.8274 24.573 18.737 22.3585L18.7031 20.9716L18.737 19.5848C18.8274 17.3918 19.5618 15.6287 20.9403 14.2956C22.3188 12.9411 24.2397 12.2638 26.7029 12.2638C29.1661 12.2638 31.0869 12.9411 32.4654 14.2956C33.8439 15.6287 34.5784 17.3918 34.6688 19.5848C34.6914 19.8214 34.7026 20.2836 34.7026 20.9716C34.7026 21.6597 34.6914 22.1219 34.6688 22.3585C34.5784 24.573 33.8439 26.3469 32.4654 27.6799C31.1095 29.013 29.1887 29.6795 26.7029 29.6795ZM26.7029 27.1961C28.1266 27.1961 29.2452 26.7661 30.0587 25.9061C30.8949 25.0461 31.3468 23.8098 31.4146 22.1972C31.4372 21.9822 31.4485 21.5737 31.4485 20.9716C31.4485 20.3696 31.4372 19.9611 31.4146 19.7461C31.3468 18.1335 30.8949 16.8972 30.0587 16.0372C29.2452 15.1772 28.1266 14.7472 26.7029 14.7472C25.2792 14.7472 24.1493 15.1772 23.3132 16.0372C22.477 16.8972 22.0364 18.1335 21.9912 19.7461L21.9573 20.9716L21.9912 22.1972C22.0364 23.8098 22.477 25.0461 23.3132 25.9061C24.1493 26.7661 25.2792 27.1961 26.7029 27.1961Z" fill="white"/>
<path d="M45.5233 29.6795C43.3765 29.6795 41.7155 29.0237 40.5404 27.7122C39.3653 26.3791 38.7777 24.616 38.7777 22.423V13.3281C38.7777 13.1131 38.8455 12.9411 38.9811 12.8121C39.1393 12.6616 39.3314 12.5863 39.5574 12.5863H41.2523C41.4782 12.5863 41.659 12.6616 41.7946 12.8121C41.9528 12.9411 42.0319 13.1131 42.0319 13.3281V22.2617C42.0319 25.4653 43.5008 27.0671 46.4385 27.0671C47.8622 27.0671 48.9921 26.6479 49.8283 25.8093C50.6644 24.9493 51.0825 23.7668 51.0825 22.2617V13.3281C51.0825 13.1131 51.1503 12.9411 51.2859 12.8121C51.444 12.6616 51.6361 12.5863 51.8621 12.5863H53.557C53.783 12.5863 53.9638 12.6616 54.0993 12.8121C54.2349 12.9411 54.3027 13.1131 54.3027 13.3281V28.6152C54.3027 28.8302 54.2349 29.013 54.0993 29.1635C53.9638 29.2925 53.783 29.357 53.557 29.357H51.9638C51.7378 29.357 51.5457 29.2925 51.3876 29.1635C51.252 29.013 51.1842 28.8302 51.1842 28.6152V27.1961C50.5514 28.0132 49.7831 28.6367 48.8792 29.0667C47.9752 29.4752 46.8566 29.6795 45.5233 29.6795Z" fill="white"/>
<path d="M60.1182 29.357C59.8922 29.357 59.7002 29.2925 59.542 29.1635C59.4064 29.013 59.3386 28.8302 59.3386 28.6152V13.3603C59.3386 13.1453 59.4064 12.9626 59.542 12.8121C59.7002 12.6616 59.8922 12.5863 60.1182 12.5863H61.6775C61.9035 12.5863 62.0956 12.6616 62.2538 12.8121C62.412 12.9626 62.491 13.1453 62.491 13.3603V14.7794C63.4176 13.3173 64.9994 12.5863 67.2367 12.5863H68.5587C68.7847 12.5863 68.9654 12.6616 69.101 12.8121C69.2592 12.9411 69.3383 13.1131 69.3383 13.3281V14.6504C69.3383 14.8654 69.2592 15.0374 69.101 15.1664C68.9654 15.2954 68.7847 15.3599 68.5587 15.3599H66.5248C65.3045 15.3599 64.3441 15.7039 63.6436 16.392C62.943 17.0585 62.5927 17.9723 62.5927 19.1333V28.6152C62.5927 28.8302 62.5136 29.013 62.3555 29.1635C62.1973 29.2925 62.0052 29.357 61.7792 29.357H60.1182Z" fill="white"/>
<path d="M72.7241 9.45794C72.4981 9.45794 72.306 9.39344 72.1478 9.26443C72.0122 9.11393 71.9444 8.93117 71.9444 8.71616V6.97459C71.9444 6.75958 72.0122 6.57683 72.1478 6.42632C72.306 6.27582 72.4981 6.20056 72.7241 6.20056H74.8596C75.0856 6.20056 75.2777 6.27582 75.4359 6.42632C75.594 6.57683 75.6731 6.75958 75.6731 6.97459V8.71616C75.6731 8.93117 75.594 9.11393 75.4359 9.26443C75.2777 9.39344 75.0856 9.45794 74.8596 9.45794H72.7241ZM72.9952 29.357C72.7693 29.357 72.5772 29.2925 72.419 29.1635C72.2834 29.013 72.2156 28.8302 72.2156 28.6152V13.3281C72.2156 13.1131 72.2834 12.9411 72.419 12.8121C72.5772 12.6616 72.7693 12.5863 72.9952 12.5863H74.6223C74.8483 12.5863 75.0291 12.6616 75.1647 12.8121C75.3229 12.9411 75.402 13.1131 75.402 13.3281V28.6152C75.402 28.8302 75.3229 29.013 75.1647 29.1635C75.0291 29.2925 74.8483 29.357 74.6223 29.357H72.9952Z" fill="white"/>
<path d="M87.4758 29.6795C85.1481 29.6795 83.2838 29.0022 81.8827 27.6477C80.5042 26.2716 79.7472 24.401 79.6116 22.0359L79.5777 20.9394L79.6116 19.8751C79.7698 17.553 80.5381 15.7039 81.9166 14.3279C83.3177 12.9518 85.1594 12.2638 87.4419 12.2638C89.9503 12.2638 91.8937 13.0271 93.2722 14.5536C94.6507 16.0587 95.3399 18.1013 95.3399 20.6814V21.2297C95.3399 21.4447 95.2608 21.6274 95.1027 21.7779C94.9671 21.9069 94.7863 21.9714 94.5603 21.9714H82.8318V22.2617C82.8996 23.6593 83.3403 24.8526 84.1538 25.8416C84.99 26.8091 86.086 27.2929 87.4419 27.2929C88.4814 27.2929 89.3288 27.0994 89.9842 26.7124C90.6621 26.3039 91.1593 25.8846 91.4756 25.4546C91.679 25.1966 91.8259 25.0461 91.9163 25.0031C92.0293 24.9386 92.2214 24.9063 92.4926 24.9063H94.1535C94.3569 24.9063 94.5264 24.9601 94.662 25.0676C94.7976 25.1751 94.8654 25.3256 94.8654 25.5191C94.8654 25.9921 94.549 26.5619 93.9163 27.2284C93.3061 27.8949 92.4361 28.4754 91.3062 28.97C90.1988 29.443 88.922 29.6795 87.4758 29.6795ZM92.1197 19.7461V19.6493C92.1197 18.1658 91.6903 16.9617 90.8316 16.0372C89.9955 15.0912 88.8655 14.6181 87.4419 14.6181C86.0182 14.6181 84.8883 15.0912 84.0521 16.0372C83.2386 16.9617 82.8318 18.1658 82.8318 19.6493V19.7461H92.1197Z" fill="white"/>
<path d="M100.173 29.357C99.9467 29.357 99.7546 29.2925 99.5964 29.1635C99.4608 29.013 99.3931 28.8302 99.3931 28.6152V13.3603C99.3931 13.1453 99.4608 12.9626 99.5964 12.8121C99.7546 12.6616 99.9467 12.5863 100.173 12.5863H101.732C101.958 12.5863 102.15 12.6616 102.308 12.8121C102.466 12.9626 102.546 13.1453 102.546 13.3603V14.7794C103.472 13.3173 105.054 12.5863 107.291 12.5863H108.613C108.839 12.5863 109.02 12.6616 109.155 12.8121C109.314 12.9411 109.393 13.1131 109.393 13.3281V14.6504C109.393 14.8654 109.314 15.0374 109.155 15.1664C109.02 15.2954 108.839 15.3599 108.613 15.3599H106.579C105.359 15.3599 104.399 15.7039 103.698 16.392C102.997 17.0585 102.647 17.9723 102.647 19.1333V28.6152C102.647 28.8302 102.568 29.013 102.41 29.1635C102.252 29.2925 102.06 29.357 101.834 29.357H100.173Z" fill="white"/>
</svg>
